<?xml version="1.0" encoding="UTF-8"?>
<!DOCTYPE svg PUBLIC "-//W3C//DTD SVG 1.1//EN" "http://www.w3.org/Graphics/SVG/1.1/DTD/svg11.dtd">
<svg xmlns="http://www.w3.org/2000/svg" version="1.1" width="512px" height="512px" style="shape-rendering:geometricPrecision; text-rendering:geometricPrecision; image-rendering:optimizeQuality; fill-rule:evenodd; clip-rule:evenodd" xmlns:xlink="http://www.w3.org/1999/xlink">
<g><path style="opacity:0.993" fill="#0965d0" d="M 232.5,-0.5 C 247.833,-0.5 263.167,-0.5 278.5,-0.5C 368.144,10.3879 435.644,54.7213 481,132.5C 497.695,163.971 507.861,197.304 511.5,232.5C 511.5,247.833 511.5,263.167 511.5,278.5C 500.612,368.144 456.279,435.644 378.5,481C 347.029,497.695 313.696,507.861 278.5,511.5C 263.167,511.5 247.833,511.5 232.5,511.5C 142.856,500.612 75.3562,456.279 30,378.5C 13.3053,347.029 3.1386,313.696 -0.5,278.5C -0.5,263.167 -0.5,247.833 -0.5,232.5C 10.3879,142.856 54.7213,75.3562 132.5,30C 163.971,13.3053 197.304,3.1386 232.5,-0.5 Z"/></g>
<g><path style="opacity:1" fill="#fdfefe" d="M 345.5,122.5 C 309.669,121.336 273.669,121.169 237.5,122C 236.29,123.039 235.29,124.206 234.5,125.5C 202.521,156.812 170.854,188.479 139.5,220.5C 160.713,247.091 182.047,273.591 203.5,300C 212.833,300.667 222.167,300.667 231.5,300C 249.978,282.933 268.644,266.099 287.5,249.5C 298.513,261.013 309.68,272.346 321,283.5C 321.667,284.167 321.667,284.833 321,285.5C 297.468,308.034 273.634,330.201 249.5,352C 224.827,352.833 200.16,352.666 175.5,351.5C 140.524,306.69 105.357,262.023 70,217.5C 69.3333,216.5 69.3333,215.5 70,214.5C 118.085,168.084 165.918,121.25 213.5,74C 266.17,73.1667 318.836,73.3334 371.5,74.5C 395.5,104.5 419.5,134.5 443.5,164.5C 444.833,192.5 444.833,220.5 443.5,248.5C 411.161,206.171 378.494,164.171 345.5,122.5 Z"/></g>
<g><path style="opacity:1" fill="#1d71d3" d="M 345.5,122.5 C 309.832,122.333 274.165,122.5 238.5,123C 237.529,124.481 236.196,125.315 234.5,125.5C 235.29,124.206 236.29,123.039 237.5,122C 273.669,121.169 309.669,121.336 345.5,122.5 Z"/></g>
<g><path style="opacity:1" fill="#fdfefe" d="M 261.5,158.5 C 286.169,158.333 310.836,158.5 335.5,159C 370.847,204.344 406.181,249.678 441.5,295C 393.522,342.311 345.522,389.645 297.5,437C 244.83,437.833 192.164,437.667 139.5,436.5C 115.573,406.317 91.4066,376.317 67,346.5C 66.1668,318.494 66.3335,290.494 67.5,262.5C 99.9755,304.81 132.642,346.976 165.5,389C 201.5,389.667 237.5,389.667 273.5,389C 306.347,356.32 339.014,323.486 371.5,290.5C 350.736,263.566 329.403,237.066 307.5,211C 298.167,210.333 288.833,210.333 279.5,211C 260.684,227.648 242.017,244.482 223.5,261.5C 212.487,249.987 201.32,238.654 190,227.5C 189.316,226.216 189.483,225.049 190.5,224C 214.363,202.301 238.03,180.467 261.5,158.5 Z"/></g>
</svg>
